<svg viewBox="0 0 1200 840" xmlns="http://www.w3.org/2000/svg" xmlns:xlink="http://www.w3.org/1999/xlink">
  <defs style="display: none">
    <g id="specimen">
      <g>
        <path d="M123.56348,308.6792V194.05029h29.66406V308.6792Z" />
        <path d="M170.80811,308.6792V223.71436h23.855l1.93652,8.2871H197.916q9.29442-9.68041,24.31982-9.68115a32.80224,32.80224,0,0,1,15.21973,3.44629,24.19,24.19,0,0,1,10.5332,11.03711q3.83423,7.59156,3.834,20.06006V308.6792H222.77832V258.72266q0-6.58229-2.67236-9.062a10.345,10.345,0,0,0-7.31885-2.47851,19.03254,19.03254,0,0,0-7.126,1.394,15.08344,15.08344,0,0,0-5.80859,4.02783v56.0752Z" />
        <path d="M307.58789,310.30566q-16.18872,0-24.82373-8.01611-8.63672-8.01636-8.63574-25.28809V246.33008H261.03906V223.71436h13.08936l5.2666-29.66407h23.70019v29.66407h20.91211v22.61572H303.09521v26.1792q0,8.0559,2.90479,11.03662,2.90406,2.98242,9.72021,2.98193a34.38128,34.38128,0,0,0,3.94971-.23242q2.01344-.23219,4.56983-.61963v22.69385q-3.40869.77271-7.89991,1.355A68.16987,68.16987,0,0,1,307.58789,310.30566Z" />
        <path d="M335.70117,308.6792V223.71436h23.7002l2.24609,10.84326h1.31641a20.19293,20.19293,0,0,1,8.9458-9.29444,27.94486,27.94486,0,0,1,12.74072-2.86572,36.04683,36.04683,0,0,1,3.71777.19385q1.85889.19409,3.25293.42578V249.1958a29.52124,29.52124,0,0,0-4.41455-.61963q-2.32325-.15381-4.3374-.15478a30.77644,30.77644,0,0,0-10.26221,1.78173,17.87783,17.87783,0,0,0-7.86132,5.03418v53.4419Z" />
        <path d="M439.95312,310.30566q-19.98266,0-31.56152-11.03711-11.57958-11.03687-11.5791-32.80078,0-21.99535,11.30811-33.07177,11.30712-11.07568,31.83251-11.07569,20.52393,0,31.87159,11.1919,11.34594,11.19286,11.34668,32.80078,0,21.84154-11.61768,32.917Q459.936,310.30714,439.95312,310.30566Zm0-21.68652q6.81445,0,10.45606-4.647,3.64014-4.64723,3.64014-17.5044,0-13.08837-3.67871-17.73632-3.67969-4.64722-10.41749-4.64747-6.73827,0-10.37841,4.64747-3.64161,4.64721-3.64014,17.58154,0,12.93529,3.60156,17.62012Q433.13745,288.62061,439.95312,288.61914Z" />
        <path d="M529.56445,310.228a36.02454,36.02454,0,0,1-17.54248-4.376,31.87829,31.87829,0,0,1-12.896-13.66992q-4.8794-9.29443-4.8794-24.24268,0-21.91772,12.04395-33.80761,12.04248-11.88869,35.43408-11.88916,2.24561,0,4.415.15478,2.16723.156,4.02734.31006V183.5166h29.04444V308.6792H554.8916l-1.78174-8.82959h-1.23877a26.6744,26.6744,0,0,1-9.21679,7.55176A28.60783,28.60783,0,0,1,529.56445,310.228Zm8.82959-23.54541a20.52876,20.52876,0,0,0,6.3125-1.00684,14.80806,14.80806,0,0,0,5.46045-3.09814V244.85889q-1.70435-.30909-3.98877-.54248a43.34665,43.34665,0,0,0-4.376-.23243q-9.29444,0-13.86426,4.91846-4.57032,4.91968-4.56934,16.76856,0,12.16039,4.105,16.53564A14.26094,14.26094,0,0,0,538.394,286.68262Z" />
        <path d="M625.2168,310.15088a33.61923,33.61923,0,0,1-15.45166-3.44678,24.3001,24.3001,0,0,1-10.64991-10.998q-3.87378-7.552-3.87255-19.94384V223.71436h29.04443v50.03418q0,6.58374,2.59473,9.06152a9.72167,9.72167,0,0,0,7.00927,2.47851,18.285,18.285,0,0,0,6.81592-1.394,15.06832,15.06832,0,0,0,5.80908-4.02734V223.71436h28.9668V308.6792h-23.855l-1.93652-8.2876h-1.16162A31.489,31.489,0,0,1,625.2168,310.15088Z" />
        <path d="M734.88818,310.30566q-22.46263,0-34.38867-10.95947-11.92822-10.95849-11.92773-32.95605,0-22.30591,12.74072-33.188,12.73974-10.88086,35.89893-10.88184a91.71116,91.71116,0,0,1,19.5957,1.936v22.69336q-4.10669-.69654-7.82275-1.04541-3.71778-.34863-7.59034-.34864-12.08276,0-17.543,4.8794-5.46019,4.88013-5.46045,15.72314,0,11.30861,5.30567,16.14844,5.3042,4.84131,15.76123,4.84082a52.04164,52.04164,0,0,0,8.0166-.61963q3.988-.6189,9.333-2.01367v22.69336a64.69238,64.69238,0,0,1-10.30127,2.28516A81.54724,81.54724,0,0,1,734.88818,310.30566Z" />
        <path d="M809.78076,310.30566q-16.18872,0-24.82373-8.01611-8.63672-8.01636-8.63574-25.28809V246.33008H763.23193V223.71436h13.08936l5.2666-29.66407h23.7002v29.66407H826.2002v22.61572H805.28809v26.1792q0,8.0559,2.90478,11.03662,2.90406,2.98242,9.72022,2.98193a34.38124,34.38124,0,0,0,3.9497-.23242q2.01343-.23219,4.56983-.61963v22.69385q-3.40869.77271-7.89991,1.355A68.16987,68.16987,0,0,1,809.78076,310.30566Z" />
        <path d="M876.543,310.30566q-19.98267,0-31.56152-11.03711-11.5796-11.03687-11.57911-32.80078,0-21.99535,11.30811-33.07177,11.30714-11.07568,31.83252-11.07569,20.52393,0,31.87158,11.1919,11.346,11.19286,11.34668,32.80078,0,21.84154-11.61768,32.917Q896.52589,310.30714,876.543,310.30566Zm0-21.68652q6.81446,0,10.45605-4.647,3.64014-4.64723,3.64014-17.5044,0-13.08837-3.67871-17.73632-3.6797-4.64722-10.41748-4.64747-6.73828,0-10.37842,4.64747-3.6416,4.64721-3.64014,17.58154,0,12.93529,3.60157,17.62012Q869.7273,288.62061,876.543,288.61914Z" />
        <path d="M932.77344,308.6792V223.71436h23.70019l2.2461,10.84326h1.3164a20.193,20.193,0,0,1,8.9458-9.29444,27.9449,27.9449,0,0,1,12.74073-2.86572,36.04712,36.04712,0,0,1,3.71777.19385q1.85889.19409,3.25293.42578V249.1958a29.52124,29.52124,0,0,0-4.41455-.61963q-2.32325-.15381-4.3374-.15478a30.77644,30.77644,0,0,0-10.26221,1.78173,17.87793,17.87793,0,0,0-7.86133,5.03418v53.4419Z" />
        <path d="M1021.688,308.6792l-29.04444-84.96484h30.20606l17.73682,58.78613,17.89111-58.78613h28.4248L1046.1626,342.7583h-28.34717l11.77246-34.0791Z" />
        <path d="M159.4209,501.6792,123.793,387.05029h5.6543l33.6914,109.51709,34.23389-109.51709h7.28027l34.31153,109.51709,33.769-109.51709h5.42139L242.60449,501.6792h-7.28027L200.93555,392.93652,166.70166,501.6792Z" />
        <path d="M337.94971,503.07324q-13.94166,0-24.55225-6.00244-10.61207-6.00147-16.53613-18.937-5.9253-12.93384-5.92481-33.769,0-20.83374,6.00244-33.769,6.00147-12.93384,16.61329-18.937a48.694,48.694,0,0,1,24.39746-6.00244q13.94165,0,24.55224,6.00244,10.61059,6.00293,16.53614,18.937,5.92528,12.93531,5.9248,33.769,0,20.83593-6.00244,33.769-6.00292,12.936-16.61328,18.937A48.69043,48.69043,0,0,1,337.94971,503.07324Zm0-5.2666a44.07674,44.07674,0,0,0,21.648-5.15039q9.33252-5.15038,14.561-16.84619,5.228-11.69385,5.228-31.13574,0-19.82594-5.228-31.6001-5.228-11.77223-14.561-17.001a47.50867,47.50867,0,0,0-43.25684-.03857q-9.37279,5.18994-14.6001,16.8457-5.228,11.658-5.228,31.17432,0,19.82886,5.228,31.60058,5.228,11.77368,14.6001,16.96192A43.86,43.86,0,0,0,337.94971,497.80664Z" />
        <path d="M410.59717,501.6792V387.05029h5.80908l75.12842,106.65137V387.05029h5.11181V501.6792H490.8374L415.709,395.02783V501.6792Z" />
        <path d="M555.355,502.45361q-6.97046,0-13.01172-.3872-6.04174-.38819-14.25146-1.394V388.75391q7.125-1.3938,14.52246-2.09082,7.39526-.69727,14.13476-.69727,28.03712,0,42.52149,14.4834,14.48217,14.48438,14.4834,43.91553,0,29.58691-14.79346,43.83789Q584.16627,502.4541,555.355,502.45361Zm.15479-5.11181q26.25658,0,39.46191-12.70215,13.20409-12.70166,13.20557-40.2749,0-27.41822-12.97315-40.35254Q582.23,391.07837,556.28467,391.07764q-5.42286,0-11.07569.50341-5.655.50464-11.85009,1.43311v102.856q4.72265.69726,9.95215,1.08447Q548.53906,497.34277,555.50977,497.3418Z" />
        <path d="M639.38916,501.6792V387.05029h69.47461v5.11182H644.65625v48.02h56.69482V445.294H644.65625v51.27343h64.98193v5.11182Z" />
        <path d="M732.33008,501.6792V388.75391q6.19556-1.16163,13.12842-1.97461a142.73036,142.73036,0,0,1,16.38086-.81348q22.46044,0,33.18847,7.668,10.72632,7.66773,10.727,24.62939.07617,27.8064-33.69189,32.22022l41.82422,51.1958h-6.5835l-41.20459-50.65381q-3.87378.2329-8.13232.23242-6.11939,0-10.72705-.23242-4.60914-.23217-9.64258-.69678V501.6792Zm25.63672-55.45557q22.69261,0,32.60742-6.93213,9.91334-6.9309,9.91357-20.79589,0-15.10327-9.17773-21.26026-9.178-6.15747-29.70313-6.15771a124.93862,124.93862,0,0,0-13.1665.58105q-5.34448.58082-10.84326,1.51026v52.125q5.73046.46507,9.79736.69726Q751.46094,446.2234,757.9668,446.22363Z" />
        <path d="M835.95947,501.6792V387.05029h5.26709V501.6792Z" />
        <path d="M872.67188,501.6792V387.05029H878.481l75.12842,106.65137V387.05029h5.11181V501.6792h-5.80908L877.78369,395.02783V501.6792Z" />
        <path d="M1042.21436,502.45361q-28.27149,0-43.02442-14.01855-14.75463-14.01783-14.832-43.91553-.07837-21.06591,6.9707-34.04,7.04664-12.97192,19.24659-18.89844a62.57257,62.57257,0,0,1,27.689-5.9248,95.2847,95.2847,0,0,1,13.709.96777,123.8905,123.8905,0,0,1,13.94141,2.90479v5.2666a108.9484,108.9484,0,0,0-14.94824-3.17578,98.5578,98.5578,0,0,0-12.62451-.85156,57.32948,57.32948,0,0,0-24.97852,5.228A37.85884,37.85884,0,0,0,996.13037,412.958q-6.27319,11.73413-6.19629,31.3291.07617,27.72876,13.28321,40.3916,13.2041,12.66285,38.91943,12.66309,6.3501,0,11.502-.42578a92.67474,92.67474,0,0,0,9.64258-1.27784V445.91357h5.2666v54.294q-7.97754,1.31837-13.90234,1.78125Q1048.72021,502.45386,1042.21436,502.45361Z" />
        <path d="M135.14209,715.7583V597.41113h14.09619l1.16211,9.37207h.85156a30.76408,30.76408,0,0,1,10.68848-7.78418,34.60807,34.60807,0,0,1,14.40625-2.90429,39.345,39.345,0,0,1,18.12353,4.18213,30.4818,30.4818,0,0,1,13.08936,13.36084q4.88013,9.178,4.87988,24.28125,0,22.38428-11.69531,33.80761-11.696,11.42579-33.92432,11.42432-4.02757,0-7.86132-.34863-3.8335-.34864-7.08692-.73584V715.7583Zm31.29053-45.69678q14.63891,0,21.88037-7.35791t7.2417-23.46826q0-11.075-3.02051-17.46533a18.579,18.579,0,0,0-8.2876-9.062,26.34854,26.34854,0,0,0-12.08252-2.67188,29.11,29.11,0,0,0-10.95947,2.16846,22.48654,22.48654,0,0,0-9.333,7.20312v49.02735a61.84109,61.84109,0,0,0,6.81592,1.16162A64.98636,64.98636,0,0,0,166.43262,670.06152Z" />
        <path d="M272.46143,683.228q-22.15211,0-33.3042-10.417-11.15333-10.41651-11.15332-33.18848,0-21.45264,10.03027-32.49072,10.029-11.0376,27.84375-11.03711,17.34888,0,26.64355,11.11425,9.29443,11.11524,9.29444,32.87842v4.56983H244.811q.54126,13.86474,7.668,19.78906,7.125,5.92456,22.30616,5.9248a73.479,73.479,0,0,0,10.88183-.852,101.23136,101.23136,0,0,0,11.65674-2.47851V679.898a114.10442,114.10442,0,0,1-12.81836,2.51709A90.80672,90.80672,0,0,1,272.46143,683.228Zm-6.81592-75.90283q-9.68262,0-15.103,6.23486-5.42213,6.23585-5.80908,20.71826h41.28222q-.31055-14.406-5.499-20.67969Q275.32666,607.32544,265.64551,607.3252Z" />
        <path d="M319.86133,681.6792V597.41113H333.648l1.394,10.9209h.9292a27.62593,27.62593,0,0,1,11.15332-8.82959,34.79673,34.79673,0,0,1,14.251-3.02051,45.23246,45.23246,0,0,1,7.59033.61963v15.2583a30.91462,30.91462,0,0,0-4.14355-.5039q-2.13135-.11572-4.29834-.11573a36.36454,36.36454,0,0,0-12.81836,2.55567,25.41623,25.41623,0,0,0-11.11475,7.97754V681.6792Z" />
        <path d="M390.49512,681.6792V610.96533H374.54v-13.5542h15.95508v-8.90674q0-16.26489,8.9458-24.90087,8.9458-8.63526,25.98486-8.63575,3.25343,0,6.35108.271,3.09741.27246,6.11865.73584v13.47656a62.40782,62.40782,0,0,0-10.37842-.9292q-10.37988,0-15.33545,4.45313-4.95777,4.45458-4.957,14.75488v9.68115H434.333v13.5542h-27.1084V681.6792Z" />
        <path d="M480.49365,683.228q-18.20214,0-29.12207-10.64942-10.92114-10.64868-10.9209-32.95605,0-22.1499,10.76563-32.83936,10.76514-10.68823,29.27734-10.68847,18.50977,0,29.2378,10.61084,10.727,10.61205,10.727,32.83984,0,22.15137-10.95948,32.917Q498.53833,683.229,480.49365,683.228Zm0-13.24414q10.68824,0,16.88428-6.77686,6.19556-6.77637,6.19629-23.50683,0-16.88379-6.19629-23.62305-6.197-6.73828-16.88428-6.73828-10.76659,0-16.9624,6.6997-6.197,6.7002-6.1958,23.4292,0,16.886,6.1958,23.7002Q469.72681,669.98462,480.49365,669.98389Z" />
        <path d="M539.666,681.6792V597.41113h13.78662l1.394,10.9209h.9292a27.62593,27.62593,0,0,1,11.15332-8.82959,34.7967,34.7967,0,0,1,14.251-3.02051,45.23254,45.23254,0,0,1,7.59033.61963v15.2583a30.91457,30.91457,0,0,0-4.14356-.5039q-2.13135-.11572-4.29834-.11573a36.36462,36.36462,0,0,0-12.81836,2.55567,25.41626,25.41626,0,0,0-11.11474,7.97754V681.6792Z" />
        <path d="M601.62646,681.6792V597.41113h13.86377l1.16211,9.29444h.9292q10.06788-10.61059,25.48194-10.61084a30.0532,30.0532,0,0,1,13.1665,2.78808,20.95718,20.95718,0,0,1,9.29443,9.062,36.48655,36.48655,0,0,1,13.438-9.17822,39.674,39.674,0,0,1,13.90283-2.67187,31.58443,31.58443,0,0,1,14.522,3.21435,22.36476,22.36476,0,0,1,9.875,10.33985q3.56177,7.12646,3.563,18.8208V681.6792H704.17285V629.24414q0-10.45605-4.33691-14.561a15.67649,15.67649,0,0,0-11.231-4.105,26.618,26.618,0,0,0-10.146,2.12989,23.01442,23.01442,0,0,0-9.21679,7.16455,58.26883,58.26883,0,0,1,.542,8.21V681.6792H653.36426V629.24414q0-10.45605-4.10449-14.561-4.1067-4.1045-10.99854-4.105a25.31383,25.31383,0,0,0-10.64941,2.47852,23.58892,23.58892,0,0,0-9.25586,7.82275V681.6792Z" />
        <path d="M766.6748,683.07324q-13.24365,0-20.48584-6.38965-7.24291-6.38964-7.24169-17.001,0-11.22876,7.939-17.50391,7.938-6.27393,25.67529-7.82275l19.28516-1.936v-4.64746q0-10.9204-5.499-14.832-5.49977-3.90967-16.96192-3.91113a81.89064,81.89064,0,0,0-11.61767.9292,78.03215,78.03215,0,0,0-12.70215,2.94336V600.04492a72.40567,72.40567,0,0,1,13.24414-2.98193,102.0857,102.0857,0,0,1,13.5542-.96826q12.23657,0,20.29248,3.0205a22.42609,22.42609,0,0,1,12.08252,10.14649q4.02612,7.12647,4.02734,19.51758v52.8999H794.24805l-1.16211-9.062h-.9292a28.22807,28.22807,0,0,1-11.07569,7.74511A38.23543,38.23543,0,0,1,766.6748,683.07324Zm-10.92041-24.86181q0,6.11939,3.834,9.52636,3.83349,3.40943,11.73389,3.40772a29.64633,29.64633,0,0,0,10.80419-2.09082,26.65854,26.65854,0,0,0,9.72022-6.66114V642.56592l-17.96875,1.78125q-9.75879,1.08544-13.94141,4.49219A11.43468,11.43468,0,0,0,755.75439,658.21143Z" />
        <path d="M830.95947,681.6792V597.41113h13.86377l1.16211,9.2168h.9292q11.30786-10.53222,27.96045-10.5332a35.47171,35.47171,0,0,1,15.52881,3.25293,23.2177,23.2177,0,0,1,10.57226,10.37841q3.79395,7.1272,3.79541,18.89844V681.6792h-16.73V629.39893q0-10.45606-4.68554-14.63819-4.6875-4.18286-12.81836-4.18262a34.53368,34.53368,0,0,0-12.00537,2.32374A25.72192,25.72192,0,0,0,847.689,620.647V681.6792Z" />
        <path d="M964.94922,683.228q-20.21484,0-31.09717-10.688-10.88232-10.689-10.88184-32.91748,0-22.1499,11.54053-32.83936Q946.05,596.095,967.7373,596.09473a73.79334,73.79334,0,0,1,19.51807,2.40088v13.47656q-4.571-1.00562-8.86816-1.5874a66.18578,66.18578,0,0,0-8.86817-.58106q-14.94873,0-22.11279,6.93213-7.16456,6.93237-7.16406,22.6543,0,16.11108,6.81543,23.11963,6.81517,7.01073,19.98291,7.00927a55.67472,55.67472,0,0,0,9.29394-.813,89.70256,89.70256,0,0,0,10.9209-2.67236v13.5542A67.36839,67.36839,0,0,1,964.94922,683.228Z" />
        <path d="M1041.86133,683.228q-22.1521,0-33.3042-10.417-11.15333-10.41651-11.15332-33.18848,0-21.45264,10.03027-32.49072,10.02906-11.0376,27.84375-11.03711,17.34888,0,26.64356,11.11425,9.29444,11.11524,9.29443,32.87842v4.56983h-57.00488q.54126,13.86474,7.668,19.78906,7.125,5.92456,22.30615,5.9248a73.479,73.479,0,0,0,10.88183-.852,101.23092,101.23092,0,0,0,11.65674-2.47851V679.898a114.104,114.104,0,0,1-12.81836,2.51709A90.80672,90.80672,0,0,1,1041.86133,683.228Zm-6.81592-75.90283q-9.68262,0-15.103,6.23486-5.42211,6.23585-5.80908,20.71826h41.28223q-.31055-14.406-5.499-20.67969Q1044.72656,607.32544,1035.04541,607.3252Z" />
      </g>
      <g>
        <path d="M125.39844,144.23975v-22.2002h14.28027v2.59522H128.51855v6.93017h9.6753v2.59473h-9.6753v7.48486h11.31006v2.59522Z" />
        <path d="M143.02344,144.23975V127.91992h2.58008l.22509,1.78467h.165a6.76622,6.76622,0,0,1,5.0249-2.04,6.2769,6.2769,0,0,1,2.76758.585,4.16462,4.16462,0,0,1,1.89014,1.898,7.59352,7.59352,0,0,1,.68213,3.48731v10.605h-3.08985V133.7998a3.46586,3.46586,0,0,0-.83251-2.65527,3.2501,3.2501,0,0,0-2.25733-.75,5.88515,5.88515,0,0,0-2.13769.44287,4.44328,4.44328,0,0,0-1.92725,1.47754v11.92481Z" />
        <path d="M167.21826,144.53955a7.479,7.479,0,0,1-5.625-2.0249q-1.96509-2.02515-1.96484-6.41992,0-4.40991,2.11474-6.41993a8.43728,8.43728,0,0,1,6.04493-2.01025,14.79768,14.79768,0,0,1,1.77.105,14.15208,14.15208,0,0,1,1.665.30029v2.54981a13.29336,13.29336,0,0,0-3.04492-.375,5.47966,5.47966,0,0,0-4.03515,1.3125q-1.30445,1.31323-1.30469,4.49267,0,3.24024,1.23,4.57471a4.67074,4.67074,0,0,0,3.61475,1.33545,9.37968,9.37968,0,0,0,1.62011-.15039,15.68046,15.68046,0,0,0,1.91992-.48v2.55029A12.14779,12.14779,0,0,1,167.21826,144.53955Z" />
        <path d="M180.37305,144.53955a6.98461,6.98461,0,0,1-5.26514-2.03223q-1.96509-2.03247-1.96484-6.39746,0-4.37988,1.94238-6.41259a7.91257,7.91257,0,0,1,10.58984,0q1.94238,2.03247,1.94239,6.39746,0,4.35058-1.96485,6.39746A6.975,6.975,0,0,1,180.37305,144.53955Zm0-2.46a4.22538,4.22538,0,0,0,2.19726-.54736,3.48206,3.48206,0,0,0,1.41748-1.85254,13.05232,13.05232,0,0,0-.00732-7.14746,3.53685,3.53685,0,0,0-1.41748-1.85987,4.62163,4.62163,0,0,0-4.36524,0,3.53416,3.53416,0,0,0-1.41748,1.84473,10.10479,10.10479,0,0,0-.50244,3.54785,10.48136,10.48136,0,0,0,.49512,3.59229,3.52437,3.52437,0,0,0,1.41748,1.86767A4.15116,4.15116,0,0,0,180.37305,142.07959Z" />
        <path d="M196.72217,144.5249a6.67233,6.67233,0,0,1-3.26221-.81006,5.71609,5.71609,0,0,1-2.355-2.5874,10.73355,10.73355,0,0,1-.87744-4.71777q0-4.36524,2.145-6.55469,2.14453-2.18994,6.27-2.19043.64453,0,1.2749.05274.62988.05272,1.15479.14257v-7.86035h3.105v24.24024h-2.625l-.19483-1.75489h-.18017a5.31876,5.31876,0,0,1-1.85987,1.47754A5.78951,5.78951,0,0,1,196.72217,144.5249Zm.79541-2.61035a4.81882,4.81882,0,0,0,1.94971-.41992,3.85073,3.85073,0,0,0,1.605-1.31983v-9.79492a8.69328,8.69328,0,0,0-1.15479-.1875,12.71189,12.71189,0,0,0-1.29-.06787,5.17,5.17,0,0,0-3.9375,1.40283q-1.32788,1.40259-1.32764,4.62745a9.15,9.15,0,0,0,.53272,3.4873,3.42734,3.42734,0,0,0,1.46973,1.7627A4.435,4.435,0,0,0,197.51758,141.91455Z" />
        <path d="M215.69727,144.53955q-4.0503,0-6.06788-1.9873-2.01708-1.98706-2.01709-6.47266,0-4.22973,1.83741-6.32227a6.36814,6.36814,0,0,1,5.04736-2.09277,5.86,5.86,0,0,1,4.83008,2.09277q1.69482,2.09253,1.69482,6.39747v.8999h-10.29a5.25448,5.25448,0,0,0,1.37256,3.90771,5.9267,5.9267,0,0,0,3.99756,1.13233,15.50873,15.50873,0,0,0,4.08008-.62989v2.44483a18.31585,18.31585,0,0,1-2.31006.48A15.99337,15.99337,0,0,1,215.69727,144.53955Zm-1.23-14.74463a3.32871,3.32871,0,0,0-2.69288,1.16992,6.73125,6.73125,0,0,0-1.04248,4.10987h7.3501a7.04016,7.04016,0,0,0-.98974-4.10254A3.15356,3.15356,0,0,0,214.46729,129.79492Z" />
        <path d="M236.60645,144.5249a18.5836,18.5836,0,0,1-2.88721-.23242,16.73861,16.73861,0,0,1-2.79785-.68262v-2.64013a17.74744,17.74744,0,0,0,2.895.69775,18.4,18.4,0,0,0,2.80517.23242,6.27505,6.27505,0,0,0,3.81738-.93017,3.20129,3.20129,0,0,0,1.20752-2.7002,2.89989,2.89989,0,0,0-.915-2.30224,7.99073,7.99073,0,0,0-3.14991-1.3877l-1.335-.34473a8.78912,8.78912,0,0,1-4.29736-2.2124,5.44829,5.44829,0,0,1-1.43262-3.9375,5.64637,5.64637,0,0,1,2.085-4.64258q2.08447-1.6875,6.2251-1.6875a17.20489,17.20489,0,0,1,4.96484.65967v2.65527a16.44825,16.44825,0,0,0-4.84472-.68994,6.71969,6.71969,0,0,0-4.02.9375,3.08692,3.08692,0,0,0-1.23,2.60254,2.97157,2.97157,0,0,0,.81738,2.23487,6.72436,6.72436,0,0,0,2.90234,1.35009l1.335.34473a9.62866,9.62866,0,0,1,4.59034,2.27246,5.37067,5.37067,0,0,1,1.46972,3.9375,5.72912,5.72912,0,0,1-2.15234,4.7627A9.53812,9.53812,0,0,1,236.60645,144.5249Z" />
        <path d="M252.13135,144.50977a5.33015,5.33015,0,0,1-3.7124-1.21485,4.72923,4.72923,0,0,1,.12011-6.72021,8.42331,8.42331,0,0,1,4.71729-1.5l3.40527-.34473v-1.05029a3.33589,3.33589,0,0,0-.99023-2.8125,5.10476,5.10476,0,0,0-3.06006-.74268,15.29614,15.29614,0,0,0-2.11475.165,13.40961,13.40961,0,0,0-2.31006.54v-2.44482a13.624,13.624,0,0,1,2.415-.54,18.34959,18.34959,0,0,1,2.4751-.18018,10.17563,10.17563,0,0,1,3.68994.57764,4.15944,4.15944,0,0,1,2.20508,1.92773,7.72993,7.72993,0,0,1,.73486,3.67481v10.395h-2.58008l-.22509-1.77h-.17969a4.81049,4.81049,0,0,1-1.98779,1.52978A6.62084,6.62084,0,0,1,252.13135,144.50977Zm-1.94971-4.815q0,2.53493,2.835,2.53516a5.08434,5.08434,0,0,0,1.9126-.39014,4.357,4.357,0,0,0,1.73242-1.32031v-3.855l-3.1499.31543a4.614,4.614,0,0,0-2.55029.855A2.32933,2.32933,0,0,0,250.18164,139.69482Z" />
        <path d="M263.80127,144.23975V127.91992h2.58008l.2251,1.78467h.165a6.76623,6.76623,0,0,1,5.02491-2.04,6.27686,6.27686,0,0,1,2.76757.585,4.16457,4.16457,0,0,1,1.89014,1.898,7.59352,7.59352,0,0,1,.68213,3.48731v10.605h-3.08984V133.7998a3.46586,3.46586,0,0,0-.83252-2.65527,3.2501,3.2501,0,0,0-2.25733-.75,5.88515,5.88515,0,0,0-2.13769.44287,4.44334,4.44334,0,0,0-1.92725,1.47754v11.92481Z" />
        <path d="M285.38623,144.53955a15.49074,15.49074,0,0,1-4.7251-.6748v-2.39991a16.36981,16.36981,0,0,0,4.71.68995,4.93175,4.93175,0,0,0,2.835-.62989,2.059,2.059,0,0,0,.87012-1.77,2.03152,2.03152,0,0,0-.50244-1.48535,3.36278,3.36278,0,0,0-1.70264-.76465l-2.33984-.45019a5.70373,5.70373,0,0,1-3.23291-1.58985,4.65438,4.65438,0,0,1,.69043-6.43505,8.064,8.064,0,0,1,5.15234-1.36524,15.847,15.847,0,0,1,2.09229.13525,16.59551,16.59551,0,0,1,1.89746.35987v2.3999a14.96554,14.96554,0,0,0-3.91455-.50977,5.03979,5.03979,0,0,0-3.10547.70508,2.1447,2.1447,0,0,0-.855,1.71,2.01892,2.01892,0,0,0,.47266,1.37989,3.02142,3.02142,0,0,0,1.67236.79492l2.32519.45019a6.20344,6.20344,0,0,1,3.2627,1.52979,4.14664,4.14664,0,0,1,1.02734,3,4.31006,4.31006,0,0,1-1.70263,3.6001A7.91378,7.91378,0,0,1,285.38623,144.53955Z" />
      </g>
      <rect x="303.04481" y="141.56323" width="783.85716" height="2.75" />
    </g>
  </defs>

  <view id="gh-light-mode-only" viewBox="0 0 1200 840" />
  <g class="gh-light">
    <rect x="0" y="0" width="100" height="100" />
    <use xlink:href="#specimen" />
  </g>

  <view id="gh-dark-mode-only" viewBox="0 0 1200 840" />
  <g class="gh-dark">
    <rect x="100" y="100" width="100" height="100" />
    <use xlink:href="#specimen" />
  </g>

  <style>
  defs {
    height: 0;
    position: absolute;
    width: 0;
  }

  .gh-dark * {
    fill: white !important;
  }

  .gh-light * {
    fill: black !important;
  }
  </style>
</svg>
